<svg xmlns="http://www.w3.org/2000/svg" xmlns:xlink="http://www.w3.org/1999/xlink" width="130.1199951171875" height="130.1220703125" viewBox="0 0 130.1199951171875 130.1220703125" fill="none"><path d="M121.992 130.122L121.992 52.862C121.992 49.627 120.7 46.519 118.412 44.232C116.124 41.944 113.028 40.662 109.792 40.662L85.3918 40.662C82.1568 40.662 79.0488 41.944 76.7618 44.232C74.4728 46.519 73.1918 49.627 73.1918 52.862L73.1918 130.122L121.992 130.122ZM105.726 56.926C103.48 56.926 101.656 58.751 101.656 60.996L101.656 69.126C101.656 71.3711 103.48 73.196 105.726 73.196C107.972 73.196 109.786 71.3711 109.786 69.126L109.786 60.996C109.786 58.751 107.972 56.926 105.726 56.926ZM101.656 89.4601C101.656 87.214 103.48 85.3901 105.726 85.3901C107.972 85.3901 109.786 87.214 109.786 89.4601L109.786 97.5901C109.786 99.8359 107.972 101.65 105.726 101.65C103.48 101.65 101.656 99.8359 101.656 97.5901L101.656 89.4601Z" fill-rule="evenodd"  fill="#FED501" ></path><path d="M130.118 124.018C130.118 127.387 127.388 130.118 124.02 130.118L124.02 130.118L6.0997 130.118C3.92075 130.118 1.90671 128.956 0.816742 127.069C-0.272247 125.181 -0.272247 122.856 0.816742 120.969C1.90671 119.081 3.92075 117.919 6.0997 117.919L8.13278 117.919L8.13278 16.265C8.13278 7.28198 15.4157 0 24.3977 0L73.1917 0C77.5057 0 81.6427 1.71301 84.6927 4.76404C87.7437 7.81396 89.4568 11.951 89.4568 16.265L89.4568 117.919L124.02 117.919C127.388 117.92 130.118 120.651 130.118 124.018Z"   fill="#E94700" ></path><path d="M69.0788 32.5941C69.0788 30.2071 67.4377 28.4141 65.4288 28.4141L32.1588 28.4141C30.1498 28.4141 28.5088 30.2071 28.5088 32.5941C28.5088 35.0001 30.1498 36.6141 32.1588 36.6141L65.4288 36.6141C67.4377 36.6141 69.0788 34.9761 69.0788 32.5941ZM69.0788 57.0051C69.0788 54.6681 67.4377 52.9051 65.4288 52.9051L32.1588 52.9051C30.1498 52.9051 28.5088 54.6681 28.5088 57.0051C28.5088 59.3681 30.1498 60.9551 32.1588 60.9551L65.4288 60.9551C67.4377 60.9551 69.0788 59.3521 69.0788 57.0051ZM32.1588 85.4491C30.1498 85.4491 28.5088 83.837 28.5088 81.4291C28.5088 79.0421 30.1498 77.2491 32.1588 77.2491L65.4288 77.2491C67.4377 77.2491 69.0788 79.0421 69.0788 81.4291C69.0788 83.816 67.4377 85.4491 65.4288 85.4491L32.1588 85.4491Z" fill-rule="evenodd"  fill="#FFFFFF" ></path></svg>